Coordinates
version=1
nRows=21
nColumns=22
inDegrees=yes

Units are S.I. units (second, meters, Newtons, ...)
If the header above contains a line with 'inDegrees', this indicates whether rotational values are in degrees (yes) or radians (no).

endheader
time	pelvis_tilt	pelvis_list	pelvis_rotation	pelvis_tx	pelvis_ty	pelvis_tz	hip_flexion_r	hip_adduction_r	hip_rotation_r	knee_angle_r	ankle_angle_r	subtalar_angle_r	hip_flexion_l	hip_adduction_l	hip_rotation_l	knee_angle_l	ankle_angle_l	subtalar_angle_l	lumbar_extension	lumbar_bending	lumbar_rotation
      1.32000000	     -2.89057981	      1.70705319	      3.87492377	     -1.15783669	      1.06370958	     -0.66646158	     21.77420421	     -3.63973682	      1.73748182	    -49.77786015	      8.77489165	      4.92363160	     -0.53399334	      5.67165819	      0.66707095	    -11.18338020	     16.03644277	     -2.78320969	     -7.14483406	     -4.04894020	     -7.87235072
      1.33000000	     -2.93766665	      1.54699644	      3.95693199	     -1.15603961	      1.06362052	     -0.66708273	     22.63389465	     -3.35181172	      1.74297162	    -50.41609652	      8.80087724	      4.80198036	     -0.61705557	      5.52078254	      0.71463202	    -11.12207759	     16.10921562	     -2.74950826	     -7.31315853	     -3.91276963	     -7.96930746
      1.34000000	     -2.98647457	      1.38261523	      4.02773422	     -1.15407763	      1.06352538	     -0.66767636	     23.44391863	     -3.07841561	      1.67895508	    -50.83655397	      8.92083864	      4.61240658	     -0.70330352	      5.36455779	      0.75196563	    -11.06837704	     16.18169894	     -2.71729996	     -7.46194329	     -3.77177961	     -8.04775749
      1.35000000	     -3.03973766	      1.21853196	      4.08321712	     -1.15196012	      1.06341433	     -0.66825186	     24.20996909	     -2.82937573	      1.54882125	    -51.04713826	      9.10284996	      4.36417991	     -0.78794487	      5.20949368	      0.77814863	    -11.02536653	     16.25472008	     -2.68613583	     -7.59163187	     -3.63001211	     -8.10998207
      1.36000000	     -3.08996277	      1.06059120	      4.12383097	     -1.14967948	      1.06328731	     -0.66882884	     24.92411104	     -2.61485619	      1.35492870	    -51.05692267	      9.33139274	      4.09008238	     -0.88108276	      5.06222233	      0.78959288	    -10.99027171	     16.32922647	     -2.65790177	     -7.71316451	     -3.48996968	     -8.15750020
      1.37000000	     -3.14248201	      0.91492507	      4.14924674	     -1.14724218	      1.06312794	     -0.66940622	     25.59491713	     -2.44277641	      1.10169073	    -50.87923146	      9.59089228	      3.77947162	     -0.97457275	      4.92959190	      0.79053353	    -10.96793746	     16.41004157	     -2.62543274	     -7.82224328	     -3.35952413	     -8.19131222
      1.38000000	     -3.19225897	      0.78511521	      4.15865191	     -1.14464192	      1.06293668	     -0.66998964	     26.21656173	     -2.31509588	      0.79442845	    -50.52408745	      9.86941991	      3.43671714	     -1.07224067	      4.81582101	      0.78191936	    -10.96302704	     16.50076355	     -2.57898533	     -7.92637289	     -3.24053069	     -8.21078383
      1.39000000	     -3.23729865	      0.68113395	      4.15187396	     -1.14188038	      1.06271648	     -0.67055614	     26.78493022	     -2.23250651	      0.45128568	    -50.00003553	     10.16104961	      3.03569979	     -1.17777789	      4.72924998	      0.76064869	    -10.97131659	     16.59010067	     -2.49268234	     -8.03101057	     -3.14984594	     -8.20748893
      1.40000000	     -3.27548222	      0.57081338	      4.14472380	     -1.13895954	      1.06246179	     -0.67112732	     27.29441678	     -2.16546570	      0.05586318	    -49.31142502	     10.43833150	      2.74067931	     -1.28029273	      4.63408646	      0.71695367	    -11.01253096	     16.75486494	     -2.40808410	     -8.13716660	     -3.04210530	     -8.22929194
      1.41000000	     -3.31587865	      0.47401308	      4.12768802	     -1.13587860	      1.06215443	     -0.67167130	     27.75730424	     -2.12338903	     -0.37367216	    -48.47403860	     10.70269142	      2.36558444	     -1.37752966	      4.55135572	      0.66369950	    -11.07656445	     16.94207363	     -2.25849729	     -8.23561455	     -2.94884460	     -8.23955822
      1.42000000	     -3.35434774	      0.38446826	      4.10183538	     -1.13264553	      1.06180078	     -0.67217668	     28.16876209	     -2.09114634	     -0.82695279	    -47.49469782	     10.93319227	      2.01068232	     -1.47641146	      4.47416047	      0.59147208	    -11.15625393	     17.16085299	     -2.08423845	     -8.33214089	     -2.86305491	     -8.24438545
      1.43000000	     -3.39040625	      0.29449754	      4.06677803	     -1.12925432	      1.06139265	     -0.67262911	     28.53220219	     -2.05686230	     -1.30985828	    -46.39311777	     11.11726728	      1.67205491	     -1.57660809	      4.39414093	      0.51390929	    -11.25483640	     17.40241106	     -1.89653273	     -8.42588737	     -2.77641991	     -8.24853008
      1.44000000	     -3.42492822	      0.20302933	      4.02339083	     -1.12570381	      1.06092881	     -0.67301309	     28.84915785	     -2.01388302	     -1.81847451	    -45.17948883	     11.24569028	      1.37019584	     -1.68243828	      4.30951574	      0.43183673	    -11.36341795	     17.65753200	     -1.72118622	     -8.51467261	     -2.69099328	     -8.25349834
      1.45000000	     -3.43926348	      0.11847631	      3.97338316	     -1.12198341	      1.06043845	     -0.67333476	     29.09771833	     -1.96451700	     -2.34778891	    -43.86313171	     11.33275252	      1.00232787	     -1.81904600	      4.22805913	      0.34643330	    -11.47495021	     17.90047320	     -1.49514278	     -8.62069138	     -2.61220265	     -8.25997346
      1.46000000	     -3.49828258	      0.01126189	      3.91281642	     -1.11812773	      1.05980998	     -0.67357225	     29.35849692	     -1.87534356	     -2.88257807	    -42.46517885	     11.34999228	      0.89894518	     -1.89790946	      4.12292427	      0.24216643	    -11.61981454	     18.17884891	     -1.44836675	     -8.66481615	     -2.51386931	     -8.26682906
      1.47000000	     -3.50349661	     -0.10329852	      3.86330830	     -1.11405741	      1.05922171	     -0.67377637	     29.51028160	     -1.77294597	     -3.48033530	    -40.97581426	     11.23316442	      0.62816528	     -2.07145790	      4.00381056	      0.18898499	    -11.71804110	     18.49303502	     -1.28147269	     -8.75914436	     -2.39898130	     -8.29406889
      1.48000000	     -3.52453260	     -0.21940474	      3.80027054	     -1.10985154	      1.05854400	     -0.67389924	     29.64024213	     -1.63951813	     -4.06246391	    -39.41870370	     11.10743947	      0.45409509	     -2.21292973	      3.88003143	      0.09160471	    -11.86185754	     18.77863684	     -1.18065017	     -8.83103758	     -2.28446888	     -8.30702055
      1.49000000	     -3.60053230	     -0.34522420	      3.72080548	     -1.10549972	      1.05771728	     -0.67389752	     29.80001225	     -1.46368618	     -4.62347672	    -37.81423242	     10.89252452	      0.41102320	     -2.29970157	      3.74409179	     -0.02185569	    -12.01569035	     19.07235524	     -1.18017261	     -8.82727006	     -2.17285391	     -8.31956582
      1.50000000	     -3.60868799	     -0.47949295	      3.65784363	     -1.10091930	      1.05693081	     -0.67387915	     29.83975050	     -1.26965745	     -5.24139212	    -36.15508223	     10.66676651	      0.29065368	     -2.49203183	      3.59253661	     -0.09681390	    -12.13402209	     19.40578081	     -1.14760423	     -8.88927684	     -2.04096952	     -8.35262069
      1.51000000	     -3.67647906	     -0.62551549	      3.57309320	     -1.09622697	      1.05599828	     -0.67373095	     29.92155205	     -1.02396252	     -5.81205889	    -34.46895879	     10.34687341	      0.25567027	     -2.60926625	      3.42705482	     -0.19911085	    -12.28955348	     19.70256373	     -1.18983788	     -8.87722679	     -1.91091521	     -8.34867459
      1.52000000	     -3.74561560	     -0.77474000	      3.48586244	     -1.09137641	      1.05500987	     -0.67352467	     29.97525681	     -0.74740989	     -6.35757018	    -32.76152601	      9.99737401	      0.23582629	     -2.73766027	      3.25659547	     -0.29325517	    -12.44207842	     19.99098650	     -1.26296141	     -8.85640422	     -1.77411213	     -8.34658620
